<?xml version="1.0" encoding="utf-8"?>
<!-- Generator: Adobe Illustrator 26.3.1, SVG Export Plug-In . SVG Version: 6.00 Build 0)  -->
<svg version="1.1" id="Layer_1" xmlns="http://www.w3.org/2000/svg" xmlns:xlink="http://www.w3.org/1999/xlink" x="0px" y="0px"
	 viewBox="0 0 1920 1080" style="enable-background:new 0 0 1920 1080;" xml:space="preserve">
<style type="text/css">
	.st0{display:none;fill:#FFFFFF;}
	.st1{fill:#F9F9F9;}
	.st2{fill:#FDD818;}
	.st3{fill:none;}
</style>
<g>
	<path class="st0" d="M-22.1,902.2c0-264.6,0-529.2,0-793.8c608.6,0,1217.2,0,1825.8,0c0,264.6,0,529.2,0,793.8
		C1195.1,902.2,586.5,902.2-22.1,902.2z M266,400.4c67.7,64.7,209.8,84.6,253.5,31.4c43.9,15.1,87,30,130.1,44.9
		c4.5-4.9,9.1-9.9,13.6-14.8c-14.8-36.4-23.8-76.7-45.4-108.6c-52.4-77.2-136.8-100.8-223.3-115.1c0-15.9,0-29.6,0-53.5
		c-26.5,14-47,24.8-77.4,40.8c7.7-32.4,14.1-59.4,20.4-86.2c-78.9-17.2-148.4,41.9-174.8,149c-20.4-5.3-40.8-10.5-61.3-15.8
		c-2.8,2.6-5.7,5.2-8.5,7.8c9.1,19.8,18.2,39.5,26.6,57.7c-8.9,29.5-21.2,58.7-26,89.1c-5.6,35.4,9.7,49.8,42.7,37.4
		C179.1,448.4,218.8,424.2,266,400.4z M333.7,514.3c-1.1-4.9-2.2-9.9-3.3-14.8c-74.2,0-148.6-2.1-222.7,1.1
		C80.4,501.8,69.3,525,74.5,553c4.8,25.7,10.7,51.4,12.9,77.3c3.3,37.9,22.3,51.9,59.9,50.1c45.9-2.2,92-2.7,137.8,0
		c37.5,2.2,56.1-11.5,61.9-48.5c9.9-63,38.5-92.4,102.4-98c52.2-4.6,105.1-2.4,157.7-1.2c9.6,0.2,27.4,10.5,27.2,15.6
		c-1.1,28.3-2.7,57.8-12.8,83.6c-3.3,8.4-32.3,8.1-49.8,9.5c-18.3,1.5-36.8,0-55.2,0.1c-66.8,0.6-66.8,0.7-84.8-61.4
		c-0.6-2.1-3.8-3.4-5.8-5.1c-32.5,6-27.1,4.3-19.6,65c3.4,27.6,20.5,40.7,48.8,40.5c52.5-0.4,105.1-0.7,157.6,0.1
		c30.5,0.4,46.6-14,50.8-43.1c3.9-27.2,8.1-54.3,11.3-81.6c4.8-40.8-5.8-56.9-47.6-59c-59-3-118.6-5-177.4-0.2
		c-81.2,6.6-120.7,43.1-137.9,119.6c-4.9,21.7-15.3,27.2-35.4,26.5c-35.5-1.2-71.2-2.9-106.5-0.1c-33.3,2.6-50.1-8-50.3-42.2
		c0-9-2.5-18.1-4.5-27.1c-6.2-28.8,5.9-42.1,35-42c43.4,0.2,86.9,1.6,130.1-0.9C298.4,529.7,315.9,520,333.7,514.3z M167.6,715.8
		c11.8,32.7,18.1,67.8,36.3,95.2c13.2,19.8,41.2,39.8,64,41.6c70.7,5.3,142.3,5,213.1,0.2c22.1-1.5,49-19.8,62.3-38.5
		c16.9-23.6,23.4-55.1,32-83.9c2-6.6-6.2-16.2-9.7-24.5c-8.4,3.7-21.2,5.2-24.3,11.5c-9.9,19.8-17.5,41-23.4,62.4
		c-7.4,27.1-23.1,38.2-51.5,37.1c-40.8-1.6-81.6-0.4-122.5-0.4c-95.5,0-96,0.2-132-89.7C203.1,704.7,193.1,696.2,167.6,715.8z
		 M1322.8,529.2c-68.8-14.3-49.1,51.6-76.8,71.1c-28-19.2-9.2-88.5-78.1-69.5c0,34.7,0.8,68.4-0.3,102.1
		c-0.9,26.8,11.2,31.7,34.9,23.1c1.1-13,2.3-26.1,3.1-36.3c13.7,13.6,27.1,26.9,40.6,40.2c12.7-13.4,25.4-26.9,38.3-40.5
		c1.5,12.5,3.1,25,6.3,51.2c15.2-14.7,30.1-22.3,30.7-30.9C1324.4,603.5,1322.8,567.1,1322.8,529.2z M1461.5,524.9
		c-41.7,0.5-70.1,28-70.1,67.9c0,39.8,29.1,68.4,69.8,68.8c42.5,0.4,73.2-29.7,72.2-70.6C1532.5,551.5,1503,524.5,1461.5,524.9z
		 M901.9,466.7c-7.2-14.9-14.5-29.8-21.8-44.8c3.6,0.2,7.2,0.4,10.7,0.6c3-21,15.6-47.5,7.3-61.9c-21.9-37.6-62.2-20.2-101.4-21.6
		c0,40.1-0.9,77.6,0.9,114.9c0.3,6,12.2,12.3,19.8,16.5c3.1,1.7,9.1-1.9,13.5-3c1.5-12.8,2.7-23.6,4.6-40.6
		C855.2,451.3,862.7,486.5,901.9,466.7z M909.8,655.4c-7.2-14.9-14.5-29.8-21.8-44.8c3.6,0.2,7.2,0.4,10.7,0.6
		c3-21,15.7-47.5,7.3-61.9c-21.9-37.7-62.2-20.2-101.4-21.6c0,40-0.9,77.5,0.9,114.9c0.3,6,12.2,12.3,19.8,16.5
		c3.1,1.7,9.1-1.9,13.5-3c1.5-12.8,2.7-23.6,4.6-40.6C863.1,639.9,870.6,675.1,909.8,655.4z M1099.7,663.5c2.3-3.2,4.6-6.3,6.9-9.5
		c-13.1-36.6-25.1-73.7-40-109.5c-3.4-8.1-16.4-16.2-25.5-16.9c-9.2-0.7-24.7,5.6-27.8,12.8c-16.1,37.4-29,76.2-43.1,114.4
		c2.9,2.8,5.9,5.7,8.8,8.5c20.1-9,40.1-25,60.2-24.9C1059.4,638.5,1079.6,654.5,1099.7,663.5z M1150.6,428.7
		c-2.2,5.2-4.5,10.5-6.7,15.7c17.2,9.3,33.9,24.5,51.8,26c16.7,1.5,43.6-6.6,50.5-19.1c31.3-56.4-41.9-49.8-60.3-84
		c24.8,4.1,43.7,7.2,67.2,11.1c-10.2-39.5-35.6-47.2-62.2-40.7c-15.9,3.9-36.2,18.8-40.8,33.2c-8.6,26.9,15.5,36.9,37.5,45.4
		c9.3,3.6,16.5,12.3,24.7,18.8c-1.6,1.8-3.3,3.7-4.9,5.5C1188.5,436.6,1169.6,432.7,1150.6,428.7z M1387,433.4
		c-2.2,2.2-4.4,4.5-6.6,6.7c-18.7-3.3-37.4-6.5-60-10.5c3,11.3,3.2,12.6,3.7,13.8c14.4,32.3,42.9,33.6,69.9,25.7
		c13.1-3.9,28.8-20.4,31.5-33.6c6.2-30.4-20.6-37.3-42.9-46.2c-7.4-3-13.1-10.2-28.3-22.5c31.2,4.7,49.7,7.5,73.6,11.1
		c-5-12.7-5.8-20.6-8.8-21.6c-22.4-6.8-45.4-16.7-67.8-15.9c-10.3,0.4-30.4,27.5-27.4,34.4c7.2,16.4,25.1,28.2,39.4,41.2
		C1370.6,422.7,1379.1,427.8,1387,433.4z M1695.2,568.4c-9.6-42.5-36.4-48.1-62.5-41.8c-15.7,3.8-35.9,19.5-40.1,33.9
		c-7.9,27,16.6,36.4,38.5,44.9c9,3.5,15.8,12.6,23.6,19.1c-1.7,1.7-3.5,3.4-5.2,5.1c-18.7-4-37.5-8-60.1-12.8
		c9.6,42.7,37.2,48.8,65,42.3c15.6-3.7,35.6-19.9,39.6-34.2c8.1-29.8-19.3-37.7-41.7-46.5c-7.7-3-13.8-10.1-20.6-15.3
		c1.3-2,2.6-4,3.9-6C1653.3,560.4,1671,563.8,1695.2,568.4z M1085.8,390.3c0-9.2,2.2-19-0.6-27.3c-3-9.1-10.5-16.7-16.1-24.9
		c-6.6,8.7-17,16.6-18.9,26.2c-3.3,16.4,1,34.3-2.5,50.7c-1.9,9.1-13.2,16.2-20.2,24.1c-6.8-8.1-18.1-15.4-19.6-24.4
		c-3.2-19.1,0-39.3-2.1-58.7c-0.7-6.4-11.4-17.7-14.4-16.8c-7.8,2.4-19.4,10-19.8,16.1c-1.8,26-4.7,53.5,2.1,77.9
		c4.2,15,23.3,32.4,39,36.6C1062.9,483.2,1085.8,456.4,1085.8,390.3z M1494.9,337.8c0,46.4,0,88.3,0,133.5c21.1,0,39.3,1.3,57.2-0.6
		c8.5-0.9,16.3-7.6,24.5-11.7c-7.5-4.7-14.9-9.7-22.6-14c-8.1-4.5-16.5-8.3-24.8-12.4c8.2-5.4,16.6-10.7,24.6-16.4
		c6.3-4.5,12.3-9.4,18.5-14.2c-6.9-4-13.6-8.3-20.7-12.1c-8-4.3-16.3-8.1-24.5-12.1c11.8-9.5,21.1-9.3,29.4-12.1
		c7.3-2.5,13.4-8.4,20-12.8c-7.3-5.1-14.1-13.7-21.9-14.6C1535.7,336.3,1516.2,337.8,1494.9,337.8z M1678.5,442.5
		c0-30.4,1.2-57.5-0.8-84.4c-0.5-7-10.7-13.3-16.4-20c-6.3,6.2-17.7,12.2-18,18.7c-1.7,37.1-0.8,74.2-0.8,114
		c26.1,0,46.8,0.7,67.4-0.5c4.4-0.3,11.6-7.1,11.8-11.2c0.2-4.3-5.6-11.4-10.3-12.9C1703,443.4,1693.5,443.9,1678.5,442.5z"/>
	<path class="st1" d="M269.9,403.9c-2.3-2.1-5.7-2.6-8.5-1.1c-45.1,23-83.6,46.1-125,61.7c-33,12.4-48.3-2-42.7-37.4
		c4.7-29.4,16.3-57.8,25.1-86.3c0.6-1.8,0.4-3.7-0.4-5.4c-7.6-16.4-15.7-34.1-23.9-51.8c-2.7-5.8,2.6-12.2,8.8-10.6
		c17.3,4.5,34.7,9,52.1,13.4c4.1,1,8.2-1.4,9.3-5.4c26.7-98.8,91.1-154.5,164.9-143.2c4.4,0.7,7.3,5,6.2,9.3
		c-4.6,19.6-9.4,39.6-14.7,62.1c-1.5,6.4,5.2,11.6,11,8.5c18.7-9.9,34.2-18,51.3-27c5.1-2.7,11.2,1,11.2,6.8v34.4
		c0,3.7,2.7,6.9,6.4,7.5c84.2,14.5,165.8,38.8,216.9,114c23,33.9,31.8,77.3,48.3,115.6c2.6,6.1-3.2,12.4-9.5,10.3
		c-43.9-15.1-87.8-30.3-132.4-45.6c-2.8-1-5.9-0.3-7.9,1.9C470.3,483.1,337.4,464.3,269.9,403.9z"/>
	<path class="st2" d="M333.7,514.3c-17.8,5.7-35.3,15.4-53.3,16.4c-43.3,2.5-86.8,1-130.1,0.9c-29.1-0.1-41.2,13.2-35,42
		c1.9,8.9,4.4,18,4.5,27.1c0.2,34.2,17,44.8,50.3,42.2c35.3-2.8,71-1.1,106.5,0.1c20.1,0.7,30.5-4.8,35.4-26.5
		c17.2-76.5,56.7-113,137.9-119.6c58.8-4.8,118.3-2.7,177.4,0.2c41.8,2.1,52.5,18.3,47.6,59c-3.2,27.3-7.4,54.4-11.3,81.6
		c-4.2,29.1-20.3,43.5-50.8,43.1c-52.5-0.7-105.1-0.5-157.6-0.1c-28.3,0.2-45.4-12.9-48.8-40.5c-7.5-60.8-12.8-59,19.7-65.1
		c2,1.7,5.1,3,5.8,5.1c18,62,17.9,62,84.8,61.4c18.4-0.2,36.9,1.3,55.2-0.1c17.5-1.4,46.5-1.1,49.8-9.5c10-25.8,11.7-55.4,12.8-83.6
		c0.2-5.1-17.6-15.4-27.2-15.6c-52.5-1.2-105.5-3.4-157.7,1.2c-63.9,5.6-92.5,35-102.4,98c-5.8,37-24.4,50.7-61.9,48.5
		c-45.8-2.7-92-2.2-137.8,0c-37.6,1.8-56.6-12.2-59.9-50.1c-2.2-26-8.2-51.6-12.9-77.3c-5.2-28,5.9-51.2,33.2-52.4
		c74.1-3.2,148.4-1.1,222.7-1.1C331.4,504.4,332.6,509.4,333.7,514.3z"/>
	<path class="st1" d="M172.7,731c-3.7-11.6,3.7-24.1,15.8-25.9c11.2-1.7,17.6,7,23.5,21.8c36,90,36.5,89.7,132,89.7
		c40.8,0,81.7-1.2,122.5,0.4c28.4,1.1,44.1-10,51.5-37.1c5.9-21.4,13.5-42.6,23.4-62.4c1-1.9,2.9-3.4,5.2-4.7
		c10.8-5.6,24.3-0.4,28.2,11.1c0.8,2.3,1.1,4.5,0.5,6.5c-8.5,28.8-15,60.3-32,83.9c-13.4,18.6-40.3,37-62.3,38.5
		c-70.8,4.8-142.4,5.2-213.1-0.2c-22.8-1.7-50.9-21.7-64-41.6C188.5,787.8,181.6,759.1,172.7,731z"/>
</g>
<g>
	<rect x="775.2" y="160" class="st3" width="4.6" height="2.3"/>
</g>
<g>
	<path class="st2" d="M860.3,470.6l-34-53.2h-9.5v53.2H777v-141h66.8c12.9,0,23.9,1.9,32.9,5.8c9.1,3.9,15.9,9.2,20.4,16
		c4.5,6.8,6.8,14.3,6.8,22.6c0,9.4-3.1,17.7-9.2,25.1c-6.1,7.4-15.2,12.6-27.1,15.7l37.7,55.8H860.3z M816.8,393.1h24.7
		c7.3,0,12.8-1.5,16.4-4.6c3.6-3.1,5.5-7.4,5.5-13.1c0-5.4-1.8-9.6-5.5-12.6c-3.6-3.1-9.1-4.6-16.4-4.6h-24.7V393.1z"/>
	<path class="st2" d="M1014.4,329.7V414c0,8.4,2.4,14.9,7.2,19.5c4.8,4.6,11.9,6.8,21.2,6.8s16.4-2.3,21.4-6.8
		c5-4.5,7.4-11,7.4-19.5v-84.3h39.8v84.1c0,12.6-3.1,23.2-9.3,31.9c-6.2,8.7-14.6,15.3-25,19.7c-10.5,4.4-22.2,6.6-35,6.6
		c-12.9,0-24.4-2.2-34.6-6.5c-10.2-4.3-18.2-10.9-24.1-19.7c-5.9-8.8-8.8-19.4-8.8-32v-84.1H1014.4z"/>
	<path class="st2" d="M1213,467c-9.5-3.3-17-8.3-22.7-14.9c-5.7-6.6-8.7-14.5-9-23.7h42.4c0.6,5.2,2.7,9.2,6.3,11.9
		c3.6,2.7,8.2,4.1,14,4.1c5.9,0,10.6-1.2,14-3.5c3.4-2.3,5.1-5.6,5.1-9.7c0-3.5-1.4-6.4-4.1-8.6c-2.7-2.3-6.1-4.1-10-5.6
		c-4-1.5-9.6-3.1-16.9-5c-10.6-2.8-19.2-5.6-25.8-8.4c-6.7-2.8-12.4-7-17.2-12.4c-4.8-5.5-7.2-12.6-7.2-21.5
		c0-13.1,5.5-23.4,16.5-30.8c11-7.4,25.4-11.1,43.1-11.1c18,0,32.5,3.7,43.5,11.1c11,7.4,16.9,17.8,17.7,31h-43.1
		c-0.3-4.5-2.3-8.1-5.8-10.7c-3.6-2.6-8.1-3.9-13.7-3.9c-4.8,0-8.7,1.1-11.6,3.3c-2.9,2.2-4.4,5.4-4.4,9.5c0,4.6,2.5,8.1,7.4,10.6
		c5,2.5,12.7,5.3,23.3,8.2c10.6,3.1,19.1,6,25.7,8.8c6.6,2.8,12.3,6.9,17.1,12.2c4.8,5.4,7.2,12.2,7.2,20.7c0,8-2.4,15.3-7.1,21.9
		c-4.7,6.6-11.6,11.8-20.6,15.7c-9,3.9-19.6,5.8-31.9,5.8C1233.2,472,1222.4,470.3,1213,467z"/>
	<path class="st2" d="M1402.7,467c-9.5-3.3-17-8.3-22.7-14.9c-5.7-6.6-8.7-14.5-9-23.7h42.4c0.6,5.2,2.7,9.2,6.3,11.9
		c3.6,2.7,8.2,4.1,14,4.1c5.9,0,10.6-1.2,14-3.5c3.4-2.3,5.1-5.6,5.1-9.7c0-3.5-1.4-6.4-4.1-8.6c-2.7-2.3-6.1-4.1-10-5.6
		c-4-1.5-9.6-3.1-16.9-5c-10.6-2.8-19.2-5.6-25.8-8.4c-6.7-2.8-12.4-7-17.2-12.4c-4.8-5.5-7.2-12.6-7.2-21.5
		c0-13.1,5.5-23.4,16.5-30.8c11-7.4,25.4-11.1,43.1-11.1c18,0,32.5,3.7,43.5,11.1c11,7.4,16.9,17.8,17.7,31h-43.1
		c-0.3-4.5-2.3-8.1-5.8-10.7c-3.6-2.6-8.1-3.9-13.7-3.9c-4.8,0-8.7,1.1-11.6,3.3c-2.9,2.2-4.4,5.4-4.4,9.5c0,4.6,2.5,8.1,7.4,10.6
		c5,2.5,12.7,5.3,23.3,8.2c10.6,3.1,19.1,6,25.7,8.8c6.6,2.8,12.3,6.9,17.1,12.2c4.8,5.4,7.2,12.2,7.2,20.7c0,8-2.4,15.3-7.1,21.9
		c-4.7,6.6-11.6,11.8-20.6,15.7c-9,3.9-19.6,5.8-31.9,5.8C1422.9,472,1412.2,470.3,1402.7,467z"/>
	<path class="st2" d="M1605.2,357.2v28.5h53.3v26.5h-53.3v30.9h60.3v27.5h-100.1v-141h100.1v27.5H1605.2z"/>
	<path class="st2" d="M1777.7,444.1h52.1v26.5h-92v-141h39.8V444.1z"/>
	<path class="st1" d="M860.3,711.6l-34-53.2h-9.5v53.2H777v-141h66.8c12.9,0,23.9,1.9,32.9,5.8c9.1,3.9,15.9,9.2,20.4,16
		c4.5,6.8,6.8,14.3,6.8,22.6c0,9.4-3.1,17.7-9.2,25.1c-6.1,7.4-15.2,12.6-27.1,15.7l37.7,55.8H860.3z M816.8,634h24.7
		c7.3,0,12.8-1.5,16.4-4.6c3.6-3.1,5.5-7.4,5.5-13.1c0-5.4-1.8-9.6-5.5-12.6c-3.6-3.1-9.1-4.6-16.4-4.6h-24.7V634z"/>
	<path class="st1" d="M1077,686.7h-61l-9.8,24.9h-41.7l59.1-141h46.1l59.1,141h-42.1L1077,686.7z M1066.8,660.2l-20.3-51.6l-20,51.6
		H1066.8z"/>
	<path class="st1" d="M1378.5,570.6v141h-39.8V627l-36.5,84.5H1270l-36.8-84.7v84.7h-39.8v-141h47l45.9,97.6l45.4-97.6H1378.5z"/>
	<path class="st1" d="M1488.7,703.7c-12.8-6.2-23-14.8-30.5-25.8c-7.5-11-11.3-23.5-11.3-37.2c0-13.8,3.8-26.2,11.3-37.1
		c7.5-11,17.7-19.5,30.5-25.7c12.8-6.2,26.9-9.2,42.3-9.2s29.4,3.1,42.3,9.2c12.8,6.2,22.9,14.7,30.3,25.7
		c7.4,11,11.1,23.4,11.1,37.1c0,13.8-3.7,26.2-11.2,37.2s-17.5,19.6-30.3,25.8c-12.7,6.2-26.8,9.2-42.1,9.2
		S1501.5,709.9,1488.7,703.7z M1562.3,670.4c7.8-7.5,11.8-17.4,11.8-29.7c0-12.4-3.9-22.4-11.8-29.8c-7.8-7.4-18.3-11.1-31.3-11.1
		c-13.2,0-23.7,3.7-31.5,11c-7.8,7.4-11.8,17.3-11.8,29.9c0,12.4,3.9,22.4,11.8,29.8c7.8,7.4,18.4,11.1,31.5,11.1
		C1544,681.6,1554.4,677.9,1562.3,670.4z"/>
	<path class="st1" d="M1710.2,707.9c-9.5-3.3-17-8.3-22.7-14.9c-5.7-6.6-8.7-14.5-9-23.7h42.4c0.6,5.2,2.7,9.2,6.3,11.9
		c3.6,2.7,8.2,4.1,14,4.1c5.9,0,10.6-1.2,14-3.5c3.4-2.3,5.1-5.6,5.1-9.7c0-3.5-1.4-6.4-4.1-8.6c-2.7-2.3-6.1-4.1-10-5.6
		c-4-1.5-9.6-3.1-16.9-5c-10.6-2.8-19.2-5.6-25.8-8.4c-6.7-2.8-12.4-7-17.2-12.4c-4.8-5.5-7.2-12.6-7.2-21.5
		c0-13.1,5.5-23.4,16.5-30.8c11-7.4,25.4-11.1,43.1-11.1c18,0,32.5,3.7,43.5,11.1c11,7.4,16.9,17.8,17.7,31h-43.1
		c-0.3-4.5-2.3-8.1-5.8-10.7c-3.6-2.6-8.1-3.9-13.7-3.9c-4.8,0-8.7,1.1-11.6,3.3c-2.9,2.2-4.4,5.4-4.4,9.5c0,4.6,2.5,8.1,7.4,10.6
		c5,2.5,12.7,5.3,23.3,8.2c10.6,3.1,19.1,6,25.7,8.8c6.6,2.8,12.3,6.9,17.1,12.2c4.8,5.4,7.2,12.2,7.2,20.7c0,8-2.4,15.3-7.1,21.9
		c-4.7,6.6-11.6,11.8-20.6,15.7c-9,3.9-19.6,5.8-31.9,5.8C1730.4,713,1719.7,711.3,1710.2,707.9z"/>
</g>
</svg>
